<svg width="276" height="56" viewBox="0 0 276 56" fill="none" xmlns="http://www.w3.org/2000/svg" role="img" aria-labelledby="googleCloudTitle">
  <title id="googleCloudTitle">Google Cloud</title>
  <g transform="translate(4 6)">
    <path d="M22.2 8.5C19.2 8.5 16.6 10 15.1 12.3C14 11.4 12.6 10.9 11.1 10.9C7.1 10.9 3.8 14.2 3.8 18.2C3.8 18.8 3.8 19.4 4 20H3.8C1.7 20 0 21.7 0 23.8C0 25.9 1.7 27.6 3.8 27.6H22.1C26.7 27.6 30.4 24 30.4 19.4C30.4 14.8 26.8 11.1 22.2 11.1V8.5Z" fill="#EA4335"/>
    <path d="M22.2 8.5V11.1C26.8 11.1 30.4 14.8 30.4 19.4C30.4 24 26.8 27.6 22.2 27.6H14.2V32.2H22.2C29.3 32.2 35 26.5 35 19.4C35 12.3 29.3 6.6 22.2 6.6V8.5Z" fill="#4285F4"/>
    <path d="M14.2 32.2V27.6H3.8C1.7 27.6 0 25.9 0 23.8C0 21.7 1.7 20 3.8 20H4C3.9 19.4 3.8 18.8 3.8 18.2C3.8 14.2 7.1 10.9 11.1 10.9C12.6 10.9 14 11.4 15.1 12.3L17.9 8.9C16.1 7.3 13.7 6.4 11.1 6.4C4.9 6.4 0 11.4 0 17.5V18.3C0 18.8 0 19.4 0.1 20C0.1 20 0.1 20 0.2 20C0.1 20 0.1 20 0.1 20.1C0.1 20 0.1 20 0 20C0 20 0 20 0 20.1C0 20.1 0 20.1 0 20.1C0 20.1 0 20.1 0 20.1C0 20.1 0 20.1 0 20.1C0 20.1 0 20.1 0 20.1C0 20.1 0 20.1 0 20.1C0 20.1 0 20.1 0 20.2C0 20.2 0 20.2 0 20.2V23.7C0 28.4 3.8 32.2 8.5 32.2H14.2Z" fill="#FBBC04"/>
    <path d="M15.1 12.3C16.6 10 19.2 8.5 22.2 8.5V6.6C17.8 6.6 13.8 8.8 11.6 12.2L15.1 12.3Z" fill="#34A853"/>
  </g>
  <text x="54" y="35" fill="#F3F4F6" font-family="Arial, Helvetica, sans-serif" font-size="24" font-weight="700">Google Cloud</text>
</svg>
